<svg xmlns="http://www.w3.org/2000/svg"  viewBox="0 0 50 50" width="50px" height="50px"><path d="M 25.017578 1.9824219 C 15.436898 1.9824219 7.2123268 7.8663695 3.7636719 16.220703 A 2.0002 2.0002 0 1 0 7.4609375 17.746094 C 10.308283 10.848427 17.072259 5.9824219 25.017578 5.9824219 C 35.534702 5.9824219 44.017578 14.465298 44.017578 24.982422 C 44.017578 35.499546 35.534702 43.982422 25.017578 43.982422 C 17.073352 43.982422 10.308226 39.118231 7.4609375 32.220703 A 2.0002 2.0002 0 1 0 3.7636719 33.746094 C 7.2123838 42.100566 15.437804 47.982422 25.017578 47.982422 C 37.696454 47.982422 48.017578 37.661298 48.017578 24.982422 C 48.017578 12.303546 37.696454 1.9824219 25.017578 1.9824219 z M 26.962891 15.962891 A 2.0002 2.0002 0 0 0 25.568359 19.396484 L 29.154297 22.982422 L 3.9824219 22.982422 A 2.0002 2.0002 0 1 0 3.9824219 26.982422 L 29.154297 26.982422 L 25.568359 30.568359 A 2.0002 2.0002 0 1 0 28.396484 33.396484 L 35.396484 26.396484 A 2.0002 2.0002 0 0 0 35.396484 23.568359 L 28.396484 16.568359 A 2.0002 2.0002 0 0 0 26.962891 15.962891 z"/></svg>